<?xml version="1.0" encoding="UTF-8"?>
<svg id="Laag_1" xmlns="http://www.w3.org/2000/svg" xmlns:xlink="http://www.w3.org/1999/xlink" version="1.1" viewBox="0 0 800 400">
  <!-- Generator: Adobe Illustrator 30.6.0, SVG Export Plug-In . SVG Version: 2.1.4 Build 109)  -->
  <defs>
    <style>
      .st0 {
        fill: url(#Naamloos_verloop_53);
      }

      .st1 {
        fill: url(#Naamloos_verloop_60);
      }

      .st2 {
        fill: url(#Naamloos_verloop_36);
      }

      .st3 {
        fill: url(#Naamloos_verloop_30);
      }

      .st4 {
        fill: #010b45;
      }
    </style>
    <linearGradient id="Naamloos_verloop_53" data-name="Naamloos verloop 53" x1="134.06" y1="241.84" x2="172.38" y2="148.3" gradientUnits="userSpaceOnUse">
      <stop offset=".07" stop-color="#0061d2"/>
      <stop offset="1" stop-color="#2e9cf9"/>
    </linearGradient>
    <linearGradient id="Naamloos_verloop_60" data-name="Naamloos verloop 60" x1="77.37" y1="235.61" x2="117.94" y2="149.97" gradientUnits="userSpaceOnUse">
      <stop offset=".07" stop-color="#3066b0"/>
      <stop offset="1" stop-color="#00a0ff"/>
    </linearGradient>
    <linearGradient id="Naamloos_verloop_36" data-name="Naamloos verloop 36" x1="146.31" y1="244.7" x2="108.22" y2="149.19" gradientTransform="translate(-.52 -1.18)" gradientUnits="userSpaceOnUse">
      <stop offset=".07" stop-color="#0760cb"/>
      <stop offset="1" stop-color="#229dff"/>
    </linearGradient>
    <linearGradient id="Naamloos_verloop_30" data-name="Naamloos verloop 30" x1="182.31" y1="220.09" x2="214.99" y2="220.09" gradientUnits="userSpaceOnUse">
      <stop offset=".07" stop-color="#157ffd"/>
      <stop offset="1" stop-color="#2e9cf9"/>
    </linearGradient>
  </defs>
  <g>
    <path class="st0" d="M155.07,231.27c-3.2,7.77-12.09,11.47-19.86,8.27-7.77-3.2-11.47-12.09-8.27-19.86l26.08-64.86c3.2-7.77,12.09-11.47,19.86-8.27,7.77,3.2,11.47,12.09,8.27,19.86l-26.08,64.86Z"/>
    <path class="st1" d="M98.55,231.27c-3.2,7.77-12.09,11.47-19.86,8.27-7.77-3.2-11.47-12.09-8.27-19.86l26.08-64.86c3.2-7.77,12.09-11.47,19.86-8.27,7.77,3.2,11.47,12.09,8.27,19.86l-26.08,64.86Z"/>
    <path class="st2" d="M124.57,232.72c3.34,8.1,12.59,11.97,20.67,8.64,8.08-3.33,11.93-12.59,8.59-20.69l-27.2-67.62c-3.34-8.1-12.59-11.97-20.67-8.64-8.08,3.33-11.93,12.59-8.59,20.69l27.2,67.62Z"/>
    <path class="st4" d="M68.89,232.83c3.26,7.92,12.33,11.7,20.26,8.44,7.92-3.26,11.7-12.33,8.44-20.26l-26.6-66.14c-3.26-7.92-12.33-11.7-20.26-8.44-7.92,3.26-11.7,12.33-8.44,20.26l26.6,66.14Z"/>
    <circle class="st3" cx="198.65" cy="220.09" r="16.34"/>
  </g>
  <g>
    <path d="M285,210.32l-11.48-46.92h9.12l4.46,21.3c1.18,5.71,2.3,11.7,3.06,16.35h.14c.77-4.94,2.09-10.51,3.41-16.42l5.09-21.23h8.98l4.66,21.57c1.19,5.57,2.16,10.8,2.86,15.88h.14c.84-5.15,1.95-10.51,3.21-16.22l4.87-21.23h8.71l-12.61,46.92h-9.19l-4.87-22.07c-1.18-5.35-2.02-9.81-2.58-14.89h-.14c-.84,5.01-1.74,9.54-3.13,14.89l-5.43,22.07h-9.26Z"/>
    <path d="M340.91,195.77c.21,6.13,5.01,8.78,10.45,8.78,3.97,0,6.82-.56,9.4-1.53l1.25,5.92c-2.92,1.18-6.96,2.08-11.83,2.08-11,0-17.48-6.75-17.48-17.13,0-9.39,5.71-18.23,16.57-18.23s14.62,9.05,14.62,16.49c0,1.6-.14,2.85-.28,3.63h-22.7ZM355.81,189.78c.07-3.12-1.32-8.29-7.04-8.29-5.28,0-7.51,4.81-7.86,8.29h14.9Z"/>
    <path d="M370.74,187.35c0-4.6-.07-7.86-.27-10.93h7.44l.28,6.48h.28c1.67-4.81,5.64-7.24,9.26-7.24.83,0,1.32.07,2.02.2v8.08c-.7-.15-1.46-.29-2.51-.29-4.11,0-6.89,2.65-7.66,6.48-.14.76-.28,1.67-.28,2.64v17.55h-8.56v-22.97Z"/>
    <path d="M404.06,191.32h.14c.84-1.32,1.81-2.78,2.71-3.97l8.22-10.93h10.3l-12.53,13.86,14.34,20.05h-10.51l-9.75-14.97-2.93,3.41v11.56h-8.56v-49.43h8.56v30.43Z"/>
    <path d="M461.39,176.42c-.14,2.3-.27,5.08-.27,9.75v19.21c0,7.1-1.47,12.18-5.01,15.39-3.55,3.12-8.42,4.1-13.09,4.1-4.32,0-8.91-.91-11.84-2.72l1.88-6.47c2.16,1.25,5.78,2.57,9.88,2.57,5.57,0,9.75-2.92,9.75-10.23v-2.92h-.14c-1.95,2.99-5.43,5.01-9.88,5.01-8.43,0-14.41-6.97-14.41-16.57,0-11.14,7.24-17.89,15.38-17.89,5.16,0,8.21,2.5,9.81,5.28h.14l.35-4.52h7.44ZM452.55,190c0-.77-.07-1.6-.28-2.31-.9-3.12-3.34-5.49-6.96-5.49-4.8,0-8.35,4.17-8.35,11.06,0,5.79,2.93,10.45,8.29,10.45,3.2,0,5.98-2.09,6.96-5.15.2-.91.35-2.09.35-3.07v-5.49Z"/>
    <path d="M476.33,195.77c.22,6.13,5.01,8.78,10.45,8.78,3.97,0,6.82-.56,9.4-1.53l1.25,5.92c-2.92,1.18-6.97,2.08-11.83,2.08-11,0-17.48-6.75-17.48-17.13,0-9.39,5.72-18.23,16.57-18.23s14.62,9.05,14.62,16.49c0,1.6-.14,2.85-.27,3.63h-22.7ZM491.23,189.78c.07-3.12-1.32-8.29-7.04-8.29-5.28,0-7.51,4.81-7.86,8.29h14.9Z"/>
    <path d="M506.16,186.51c0-3.9-.07-7.17-.27-10.09h7.51l.42,5.08h.2c1.47-2.64,5.16-5.84,10.8-5.84s12.04,3.83,12.04,14.55v20.12h-8.56v-19.14c0-4.88-1.81-8.57-6.48-8.57-3.41,0-5.77,2.45-6.68,5.01-.27.77-.34,1.81-.34,2.78v19.91h-8.64v-23.81Z"/>
    <path d="M578.18,193.06c0,12.46-8.78,18.03-17.4,18.03-9.6,0-16.99-6.6-16.99-17.47s7.31-17.96,17.55-17.96,16.84,7.09,16.84,17.4ZM552.63,193.41c0,6.53,3.21,11.48,8.42,11.48,4.88,0,8.29-4.8,8.29-11.63,0-5.28-2.36-11.34-8.22-11.34s-8.49,5.85-8.49,11.49Z"/>
    <path d="M594.99,166.75v9.67h8.15v6.41h-8.15v14.97c0,4.1,1.11,6.26,4.39,6.26,1.45,0,2.57-.22,3.34-.42l.14,6.55c-1.25.49-3.48.83-6.19.83-3.14,0-5.77-1.05-7.38-2.78-1.82-1.94-2.65-5.01-2.65-9.47v-15.93h-4.88v-6.41h4.88v-7.66l8.35-2.01Z"/>
    <path d="M615.22,195.77c.2,6.13,5.01,8.78,10.45,8.78,3.97,0,6.82-.56,9.4-1.53l1.25,5.92c-2.92,1.18-6.95,2.08-11.83,2.08-11,0-17.48-6.75-17.48-17.13,0-9.39,5.72-18.23,16.57-18.23s14.62,9.05,14.62,16.49c0,1.6-.14,2.85-.27,3.63h-22.7ZM630.12,189.78c.07-3.12-1.33-8.29-7.04-8.29-5.28,0-7.51,4.81-7.86,8.29h14.9Z"/>
    <path d="M645.05,186.51c0-3.9-.07-7.17-.27-10.09h7.51l.42,5.08h.2c1.47-2.64,5.16-5.84,10.8-5.84s12.04,3.83,12.04,14.55v20.12h-8.56v-19.14c0-4.88-1.81-8.57-6.48-8.57-3.41,0-5.77,2.45-6.68,5.01-.27.77-.34,1.81-.34,2.78v19.91h-8.64v-23.81Z"/>
  </g>
</svg>